<?xml version="1.0" encoding="UTF-8"?>
<svg id="Layer_1" data-name="Layer 1" xmlns="http://www.w3.org/2000/svg" viewBox="0 0 614 614">
  <path fill="#5200FF" stroke="#000" d="m363.07,593.39c-6.64-1.37-16.6-3.28-26.48-5.51-42.84-9.69-85.66-19.48-128.5-29.22-19.8-4.5-39.6-9-59.42-13.4-21.02-4.67-29.49-19.12-24.14-41.22,5.88-24.25,11.57-48.55,17.55-72.77,12.72-51.52,25.62-102.99,38.36-154.5,8.34-33.75,16.52-67.53,24.79-101.3,7.72-31.51,15.51-62.99,23.18-94.51,2.79-11.47,5.3-23,7.95-34.51,4.29-18.6,17.7-26.92,36.46-23.04,32.58,6.74,65.21,13.24,97.81,19.88,30.64,6.25,61.29,12.49,91.91,18.85,19.59,4.07,28.4,17.41,24.65,36.93-8.21,42.67-16.42,85.34-24.66,128.01-8.99,46.58-17.98,93.17-27.03,139.74-6.7,34.48-13.51,68.93-20.27,103.4-6.47,32.99-13,65.97-19.4,98.98-2.77,14.3-14.54,24.13-32.76,24.18Zm19.07-79.88c.45-1.69.8-2.78,1.02-3.9,3.17-16,6.34-32,9.46-48.01,10.07-51.62,20.11-103.24,30.18-154.86,6.88-35.27,13.86-70.53,20.7-105.81,6.11-31.53,12.01-63.1,18.19-94.61.76-3.89-.49-4.84-4.01-5.5-11.13-2.06-22.19-4.5-33.27-6.8-26.56-5.53-53.11-11.08-79.68-16.59-24.12-5-48.25-9.98-72.38-14.9-8.41-1.72-16.86-3.24-25.19-4.84-.44.97-.72,1.4-.84,1.87-10.11,41.05-20.23,82.1-30.3,123.16-9.31,37.99-18.55,76-27.86,113.99-13.18,53.84-26.38,107.68-39.65,161.5-.81,3.27-.33,5.13,3.25,5.64,1.47.21,2.89.76,4.36,1.07,18.55,3.99,37.12,7.92,55.67,11.96,27.49,5.99,54.96,12.06,82.43,18.09,25.04,5.49,50.08,11.01,75.13,16.43,4.17.9,8.43,1.41,12.79,2.12Zm-120.67,29.86c11.26.08,19.55-7.84,19.63-18.74.08-11.12-8.29-19.88-19.15-20.05-11.67-.19-20.23,7.87-20.37,19.18-.14,11.26,8.25,19.52,19.9,19.6ZM341.91,54.18c-.51.39-1.54,1.19-2.58,1.98,1.06,1.22,1.94,3.25,3.22,3.53,10.54,2.38,21.13,4.54,31.76,6.48,1.36.25,3.02-1.2,4.55-1.87-1.09-1.08-2.02-2.86-3.29-3.14-10.87-2.42-21.81-4.57-33.66-6.99Zm-16.84-2.76c-3.05-2.28-4.85-4.65-6.3-4.45-1.93.27-3.58,2.54-5.34,3.95,1.57,1.63,2.97,4.28,4.76,4.58,1.61.27,3.66-2.04,6.88-4.08Z"/>
  <path fill="#5200FF" stroke="#000" d="m343.4,384.43c-12.28.59-23.88-4.55-35.99-7.38-8.83-2.07-17.95-3.12-26.99-4.03-10.24-1.02-20.62-.83-30.81-2.18-9.59-1.27-18.13-5.62-24.42-13.28-5.18-6.31-6.5-13.88-4.73-21.68,4.99-22.08,17.92-38.99,35.52-52.55,8.64-6.65,18.08-11.81,29.43-12.23,6.89-.25,13.08,1.67,19.04,4.98,1.68.94,4.17,1.59,5.91,1.08,19.8-5.83,35.15.88,47.6,16.32,13.78,17.09,21.88,36.4,21.97,58.53.09,20.66-10.91,31.69-31.52,32.4-1.5.05-3,0-5.01,0Zm-9.98-22.86c-1.7-3.21-2.93-5.92-4.49-8.43-3.59-5.75-8.12-6.82-13.89-3.14-2.25,1.43-3.64,1.35-5.53-.63-5.81-6.12-10.58-6.62-17.73-2.27-1.37.83-2.8,1.56-4.17,2.32-6.18-9.68-8.37-9.92-16.99-2.15-1.4,1.26-2.88,2.45-4.69,3.99-1.42-3.02-2.72-5.49-3.77-8.05-2.85-6.91-5.82-7.65-11.19-2.21-2.51,2.55-4.82,5.54-6.36,8.75-3.18,6.62-1.38,10.72,5.86,12.1,7.14,1.37,14.55,2.38,21.77,2.05,18.53-.85,35.95,3.27,53.31,9.13,6.64,2.24,14.02,2.58,21.11,3.04,3.82.25,8.59-1.11,7.85-6.15-.82-5.59-2.72-11.23-5.26-16.29-2.01-4.03-5.3-3.84-8.46-.49-2.44,2.59-4.7,5.35-7.39,8.43Zm-54.89-73.36c.05.56.09,2.07.31,3.55,1.27,8.72,3.51,9.85,10.38,4.84,2.48-1.81,3.95-1.46,5.89.6,7.63,8.08,15.35,9.16,24.43,3.16,3.04-2.01,4.75-1.89,6.92,1.11,3.99,5.52,6.95,5.17,10.08-.94,1.05-2.06,1.87-4.27,2.55-6.48,1.29-4.2,0-7.85-4.41-8.38-7.14-.86-14.41-.68-21.63-.99-3.21-.14-6.49-.06-9.61-.71-5.81-1.2-11.45-3.51-17.3-4.16-6.16-.69-7.72,1.41-7.61,8.4Z"/>
  <path fill="#5200FF" stroke="#000" d="m342.07,253.51c-10.82-.42-15.98-4.74-15.58-13.39.12-2.52,1.23-5.16,2.52-7.38.6-1.03,3.35-2.02,4.02-1.53,1.14.84,1.58,2.83,1.98,4.42.17.66-.88,1.64-.71,2.31.62,2.42.88,5.52,2.51,6.89,1.21,1.02,5,.57,6.5-.65,6.96-5.62,13.47-11.8,20.24-17.67,12.51-10.84,24.88-21.87,37.8-32.2,3.51-2.81,8.71-3.84,13.32-4.77,1.55-.31,4.79,1.88,5.29,3.53.93,3.11-1.81,4.01-4.6,4.28-10.94,1.05-17.8,8.69-26.29,15.88,11.61,3.78,19.95,10.13,24.37,20.71,4.05,9.69,3.6,19.49.35,29.32-4.63,14.02-18,26.4-36.55,25.2-18.64-1.21-30.52-12.61-35.17-34.95Zm10.7-4.95c-.67,1.71-2.21,3.68-1.99,5.43.51,3.9,1.24,8.03,3.06,11.44,5.75,10.79,18.17,16.57,30.34,14.76,10.48-1.56,20.3-10.97,22.8-21.84,3.31-14.38-.55-26.33-10.74-33.23-8.63-5.84-16.59-4.62-21.83,3.68,6.52,1.22,11.37,4.51,13.73,10.86.9,2.41.35,3.64-2.28,4.33-2.54.67-4.94,1.92-7.39,2.92.04.68.08,1.35.12,2.03,2.23.51,4.43,1.26,6.69,1.48,3.78.36,4.81,2.23,3.92,5.72-1.7,6.66-5.76,11.29-12.29,13.16-6.24,1.78-12.32.35-16.15-4.94-3.19-4.4-5.04-9.78-8-15.79Z"/>
  <path fill="#5200FF" stroke="#000" d="m290.42,244.69c-10.4,23.34-28.5,26.98-43.79,23.81-13.64-2.83-24.36-15.7-25.57-30.29-.92-11.02,1.46-21.1,8.52-29.91,6.95-8.67,16.39-12.47,27.78-13.85-5.21-8.02-9.64-15.43-18.25-19.24-1.69-.75-2.46-3.59-3.65-5.47,2.33-.69,5.48-2.7,6.85-1.84,4.96,3.08,10.44,6.33,13.71,10.95,9.19,12.96,17.36,26.64,25.96,40.02,3.5,5.44,6.81,11.02,10.73,16.14,1.37,1.78,4.33,2.35,6.56,3.47,1.1-2.21,2.15-4.45,3.31-6.62.9-1.69,1.94-3.31,2.91-4.95,1.25,1.64,3.39,3.18,3.6,4.95,1.33,11.19-6.42,16.53-18.68,12.86Zm-22.61-32.93c-2.83-6.55-6.21-9.32-12.17-8.83-24.17,1.98-32.43,28.24-22.99,45.27,5.53,9.98,17.19,15.73,27.96,13.3,11.15-2.52,18.94-8.56,21.93-21.16.46-1.93-.8-4.27-1.26-6.42-5.13,13.96-12.43,20.03-22.16,17.85-8.89-1.99-13.71-9.35-12.39-19.79h12.57c-2.29-2.82-3.35-4.64-4.88-5.91-4.63-3.86-4.91-5.96.37-9.14,3.95-2.38,8.66-3.49,13.02-5.16Z"/>
  <path fill="#5200FF" stroke="#000" d="m298.54,259.37c1.3-3.84,7.05-4.84,20.77-2.16,3.6.7,7.11,1.93,6.66,5.6-4.68,1.91-8.38,3.59-12.21,4.89-1.25.42-3.15.33-4.22-.35-3.55-2.27-6.85-4.92-10.99-7.97Z"/>
</svg>